Coordinates
version=1
nRows=9
nColumns=24
inDegrees=yes

Units are S.I. units (second, meters, Newtons, ...)
Angles are in degrees.

endheader
time	pelvis_tilt	pelvis_list	pelvis_rotation	pelvis_tx	pelvis_ty	pelvis_tz	hip_flexion_r	hip_adduction_r	hip_rotation_r	knee_angle_r	ankle_angle_r	subtalar_angle_r	mtp_angle_r	hip_flexion_l	hip_adduction_l	hip_rotation_l	knee_angle_l	ankle_angle_l	subtalar_angle_l	mtp_angle_l	lumbar_extension	lumbar_bending	lumbar_rotation
      0.84133333	      1.06843867	     -6.95276810	     -0.70188271	     -0.38725711	      1.00492223	      0.31502139	      8.71833669	     10.03226008	     -0.20951871	    -18.26768333	     10.47717665	    -10.76701602	     -4.57908819	     10.57505262	     -7.59429921	     -2.17694231	    -70.47319953	     -8.68972819	    -11.53681923	      0.72200424	    -12.49887597	     16.81465584	     -2.18325533
      0.84550000	      1.16268849	     -6.78758245	     -0.69971057	     -0.38235329	      1.00610430	      0.31556928	      8.05304276	      9.90771686	     -0.03476762	    -17.74776146	     10.41850912	    -10.88508162	     -4.56214590	     11.11181131	     -7.48297422	     -2.29434305	    -70.46686798	     -7.98378944	    -11.62435243	      0.41097712	    -12.68547191	     16.49184086	     -1.75253770
      0.84966667	      1.21293844	     -6.56752258	     -0.67974257	     -0.37744078	      1.00719989	      0.31604329	      7.45260921	      9.71006634	      0.07212150	    -17.26759102	     10.44076609	    -10.92098949	     -4.54829352	     11.68768025	     -7.28258938	     -2.36728805	    -70.39094943	     -7.33220039	    -11.69140320	      0.20909058	    -12.76613308	     16.15585463	     -1.54616455
      0.85383333	      1.27136139	     -6.36092036	     -0.67651840	     -0.37253343	      1.00828511	      0.31652407	      6.83756166	      9.52677780	      0.19084886	    -16.77353693	     10.43497701	    -10.95305591	     -4.53567461	     12.23922203	     -7.10033200	     -2.46679048	    -70.25876473	     -6.68913336	    -11.79924703	      0.01562374	    -12.86738576	     15.83242298	     -1.30247043
      0.85800000	      1.29079649	     -6.13205362	     -0.68012413	     -0.36763881	      1.00927781	      0.31699224	      6.28533353	      9.31327145	      0.27194187	    -16.32339820	     10.42522006	    -10.93495680	     -4.53001139	     12.82416651	     -6.88546801	     -2.56588778	    -70.07633748	     -6.06034813	    -11.93222090	     -0.07557526	    -12.91970696	     15.49800127	     -1.17150811
      0.86216667	      1.36044566	     -5.90041458	     -0.69247875	     -0.36274046	      1.01032796	      0.31747992	      5.65977466	      9.09904528	      0.38482551	    -15.83302906	     10.42767431	    -10.93470596	     -4.52352087	     13.33228837	     -6.66940514	     -2.67644336	    -69.82384027	     -5.41983434	    -11.96523768	     -0.18569662	    -13.03709218	     15.13740896	     -0.94142303
      0.86633333	      1.43087200	     -5.66872159	     -0.71004339	     -0.35781826	      1.01136460	      0.31796732	      5.02292520	      8.88392964	      0.50894541	    -15.32403044	     10.43170283	    -10.93968810	     -4.51697917	     13.82219057	     -6.45157155	     -2.79060782	    -69.51184351	     -4.80590530	    -11.97208559	     -0.31283394	    -13.15180449	     14.77995622	     -0.68211579
      0.87050000	      1.53738773	     -5.44386321	     -0.73520500	     -0.35287040	      1.01240971	      0.31845565	      4.33896010	      8.67306135	      0.62888181	    -14.80172676	     10.46698697	    -10.93947765	     -4.50731196	     14.25121863	     -6.24685310	     -2.92344857	    -69.13743974	     -4.20469495	    -11.94361286	     -0.49723435	    -13.29582177	     14.44188021	     -0.37514450
      0.87466667	      1.57742290	     -5.19636135	     -0.75873285	     -0.34795930	      1.01331430	      0.31891926	      3.75177246	      8.43270502	      0.71726855	    -14.32650576	     10.48900720	    -10.91252138	     -4.50029813	     14.74985094	     -6.00243968	     -3.03278558	    -68.72226834	     -3.60502873	    -11.89553460	     -0.65863356	    -13.37188325	     14.07440548	     -0.15787335
